<?xml version="1.0" encoding="UTF-8"?>
<svg width="18px" height="18px" viewBox="0 0 18 18" version="1.1" xmlns="http://www.w3.org/2000/svg" xmlns:xlink="http://www.w3.org/1999/xlink">
    <title>WPZ/Icon/Expand</title>
    <g id="FAQs" stroke="none" stroke-width="1" fill="none" fill-rule="evenodd">
        <g id="FAQs-1200px" transform="translate(-336.000000, -303.000000)">
            <g id="Questions" transform="translate(297.000000, 95.000000)">
                <g id="Group" transform="translate(39.000000, 208.000000)">
                    <circle id="Oval" fill="#F6F4F3" cx="9" cy="9" r="9"></circle>
                    <path d="M13.2857143,9.71428571 L9.71428571,9.71428571 L9.71428571,9.71428571 L9.71428571,13.2857143 C9.71428571,13.6802034 9.39448911,14 9,14 C8.60551089,14 8.28571429,13.6802034 8.28571429,13.2857143 L8.28571429,9.71428571 L8.28571429,9.71428571 L4.71428571,9.71428571 C4.31979661,9.71428571 4,9.39448911 4,9 C4,8.60551089 4.31979661,8.28571429 4.71428571,8.28571429 L8.28571429,8.28571429 L8.28571429,8.28571429 L8.28571429,4.71428571 C8.28571429,4.31979661 8.60551089,4 9,4 C9.39448911,4 9.71428571,4.31979661 9.71428571,4.71428571 L9.71428571,8.28571429 L9.71428571,8.28571429 L13.2857143,8.28571429 C13.6802034,8.28571429 14,8.60551089 14,9 C14,9.39448911 13.6802034,9.71428571 13.2857143,9.71428571 Z" id="icon/content/add_24px" fill="#757575" fill-rule="nonzero"></path>
                </g>
            </g>
        </g>
    </g>
</svg>