<?xml version="1.0" encoding="UTF-8"?>
<svg width="24px" height="24px" viewBox="0 0 24 24" version="1.1" xmlns="http://www.w3.org/2000/svg" xmlns:xlink="http://www.w3.org/1999/xlink">
    <title>WPZ/Icon/FAQ</title>
    <g id="Symbols" stroke="none" stroke-width="1" fill="none" fill-rule="evenodd">
        <g id="Bottom-Navigation" transform="translate(-312.000000, -71.000000)" fill="#757575">
            <g id="FAQs" transform="translate(280.000000, 46.000000)">
                <g id="Combined-Shape" transform="translate(32.000000, 25.000000)">
                    <path d="M12,2 C17.5228475,2 22,6.4771525 22,12 C22,17.5228475 17.5228475,22 12,22 C6.4771525,22 2,17.5228475 2,12 C2,6.4771525 6.4771525,2 12,2 Z M12,3.81818182 C7.48130659,3.81818182 3.81818182,7.48130659 3.81818182,12 C3.81818182,16.5186934 7.48130659,20.1818182 12,20.1818182 C16.5186934,20.1818182 20.1818182,16.5186934 20.1818182,12 C20.1818182,7.48130659 16.5186934,3.81818182 12,3.81818182 Z M12.005,15.755 C12.4882492,15.755 12.88,16.1467508 12.88,16.63 C12.88,17.1132492 12.4882492,17.505 12.005,17.505 C11.5217508,17.505 11.13,17.1132492 11.13,16.63 C11.13,16.1467508 11.5217508,15.755 12.005,15.755 Z M12,6.755 C13.93,6.755 15.5,8.325 15.5,10.255 C15.5,12.445 12.88,12.665 12.88,14.635 C12.8733333,15.0494172 12.58,15.2566258 12,15.2566258 C11.42,15.2566258 11.13,15.0494172 11.13,14.635 C11.13,11.795 13.75,12.015 13.75,10.255 C13.75,9.295 12.96,8.505 12,8.505 C11.04,8.505 10.25,9.295 10.25,10.255 C10.255325,10.6354787 9.96866516,10.825718 9.39002057,10.825718 C8.81137598,10.825718 8.51470246,10.6354787 8.5,10.255 C8.5,8.325 10.07,6.755 12,6.755 Z"></path>
                </g>
            </g>
        </g>
    </g>
</svg>