<?xml version="1.0" encoding="UTF-8"?>
<svg width="46px" height="32px" viewBox="0 0 46 32" version="1.1" xmlns="http://www.w3.org/2000/svg" xmlns:xlink="http://www.w3.org/1999/xlink">
    <!-- Generator: Sketch 55.1 (78136) - https://sketchapp.com -->
    <title>Group 3</title>
    <desc>Created with Sketch.</desc>
    <defs>
        <polygon id="path-1" points="1.32886978e-05 0 45.891622 0 45.891622 31.8595212 1.32886978e-05 31.8595212"></polygon>
    </defs>
    <g id="Page-1" stroke="none" stroke-width="1" fill="none" fill-rule="evenodd">
        <g id="Black-Bear-Tips" transform="translate(-330.000000, -709.000000)">
            <g id="Group" transform="translate(18.000000, 671.000000)">
                <g id="Group-3" transform="translate(335.000000, 54.000000) scale(-1, 1) translate(-335.000000, -54.000000) translate(312.000000, 38.000000)">
                    <mask id="mask-2" fill="white">
                        <use xlink:href="#path-1"></use>
                    </mask>
                    <g id="Clip-2"></g>
                    <path d="M45.5891076,1.79081258 C45.8338276,1.9015044 45.9411609,2.16998239 45.8700142,2.42557987 C45.859792,2.46180629 45.8559076,2.49561761 45.8602009,2.5286239 C45.9636498,3.29501384 45.6124142,3.84525283 45.0598009,4.32303899 C44.9449031,4.42246038 44.8715076,4.56877484 44.7279876,4.76198239 L45.2928676,4.87508931 C45.392432,4.89501384 45.4496764,4.99685031 45.4177831,5.09204528 C45.2662898,5.54306415 45.0117564,5.91237233 44.6335342,6.10980629 C44.2246453,6.32334088 43.7194631,6.39378113 43.2476053,6.44449811 C42.7426276,6.49883774 42.2268142,6.44751698 41.7159076,6.45918994 C41.0878542,6.47347925 40.5473031,6.73189434 40.0239253,7.05330314 C39.5565653,7.34029686 39.4230631,7.83337862 39.3269742,8.27735346 C39.0679431,9.47604528 38.6426987,10.6306616 38.4223076,11.8398189 C38.2986187,12.5184604 38.2675431,12.8845484 38.4084053,13.5388377 C38.486912,13.9045233 38.5051076,14.3281711 38.3955253,14.679366 C38.0442898,15.8090264 37.5125298,16.8285987 36.6252409,17.6901836 C35.9497564,18.346083 35.3797653,19.120322 35.1354542,20.093605 C35.0213742,20.5490516 34.944912,21.0181836 34.8390098,21.4726239 C34.6638009,22.2257308 34.7705209,23.0436428 34.5846809,23.7925233 C34.2332409,25.2077686 34.4810276,26.6268377 34.4088587,28.0410767 C34.3761476,28.6838943 34.4693742,28.7762717 35.141792,28.7871396 C35.5330987,28.7933786 35.8160498,28.9449258 36.070992,29.1540327 C36.3613031,29.3919195 36.4870364,29.7565987 36.4835609,30.128322 C36.4815164,30.3609761 36.6738987,30.6181836 36.6307609,30.934561 C36.4234542,31.1120704 36.1654453,31.432473 35.8291342,31.5999195 C35.0912942,31.9666113 34.3109298,31.9223346 33.5553031,31.6079698 C33.4109653,31.5477937 33.2204231,31.4292528 33.187712,31.3030642 C33.0143431,30.6377057 32.3664587,30.1182591 32.5608853,29.3430138 C32.2534009,28.6553157 32.4905564,27.9022088 32.3327253,27.2181333 C32.0139964,25.8352906 32.2182364,24.451039 32.1607876,23.0698063 C32.1419787,22.614561 31.8714987,22.2267371 31.9248587,21.7425107 C31.9686098,21.346234 31.8545298,20.9147371 31.7265476,20.5255044 C31.6523342,20.3000956 31.4117031,20.1276176 31.2442631,19.9289761 C31.1714809,20.0008252 31.1279342,20.0835421 31.0743698,20.0901836 C30.3606542,20.1807497 29.6471431,20.3045233 28.9303609,20.3331019 C27.9097742,20.3739572 26.8865298,20.3322969 25.864512,20.3465862 C24.7417031,20.362083 23.6599876,20.0783094 22.5592587,19.9350138 C22.3775076,19.9112654 22.1963698,19.824322 22.0324053,19.7351648 C21.3939253,19.3873912 20.6979964,19.1030138 20.1472231,18.6495799 C19.6091253,18.2066113 19.0581476,18.0904855 18.4145564,18.1285233 C18.2788053,18.1365736 18.142032,18.1297308 17.9694809,18.1297308 C17.7687164,18.3613786 17.5507787,18.6129509 17.2463609,18.9647497 C17.3794542,19.651039 16.8826542,20.2922465 16.1740498,20.8426868 C15.8596142,21.0866113 15.5656231,21.3566994 15.3172231,21.6656302 C14.6315164,22.5179572 13.8544231,23.0378063 12.8481476,23.4006742 C11.7598898,23.7929258 10.7133387,24.3703346 9.75837867,25.0234164 C8.98700978,25.5509132 8.48632533,26.3927748 8.09215644,27.2440956 C7.97664533,27.4936553 8.03511644,27.8211019 8.01344533,28.1167497 C8.23833422,28.098234 8.45279644,28.0207497 8.60858311,28.0835421 C8.78317867,28.1539824 8.90461867,28.3516176 9.04936533,28.4939069 C9.04956978,28.8292025 9.04956978,29.1644981 9.04956978,29.4997937 C9.85303644,29.9306868 9.85508089,29.9339069 9.867552,30.8594918 C9.20535644,31.8716176 8.17209422,31.8541082 7.11716089,31.8060075 C6.64550756,31.4310642 6.49810311,30.9277182 6.35294756,30.3279698 C6.10495644,29.3039698 6.23273422,28.2956679 6.19593422,27.2829384 C6.15831644,26.2444478 6.165472,25.2031396 6.19940978,24.1642465 C6.21167644,23.7929258 6.35969422,23.4258314 6.47704533,22.921278 C6.71604089,22.7522214 7.06318756,22.5103094 7.40583644,22.262561 C7.72170311,22.0341333 7.96335644,21.7368755 8.31438756,21.5215296 C8.82140978,21.2107874 9.27895644,20.7486994 9.609952,20.2552151 C9.87716089,19.8569258 10.0572764,19.3139321 10.0458276,18.8403723 C10.0186364,17.7237937 10.4798631,16.6965736 10.5182987,15.5866365 C10.5469209,14.7646994 10.9703253,13.9755673 11.4378898,13.2582843 C11.4861387,13.1842214 11.4914542,13.0829887 11.5446098,12.8970264 C10.5880142,12.8970264 9.679872,12.899039 8.77172978,12.8962214 C8.34689422,12.8948126 7.93718756,12.8921962 7.51991644,12.7134792 C7.14394311,12.552473 6.64591644,12.8893786 6.27873422,12.4989384 C6.24724978,12.4655296 6.14686756,12.4993409 6.07919644,12.4937057 C5.289632,12.4278943 4.48698311,12.4264855 3.71397867,12.2771522 C2.65086756,12.0718692 1.57201422,12.0459069 0.508289778,11.8830893 L0.501952,11.882083 C0.0846808889,11.8162717 -0.131416889,11.3557937 0.0857031111,10.9987623 C0.297712,10.6499824 0.674503111,10.3823094 1.13736533,10.2800704 C2.25976533,10.032322 3.37725867,9.76404528 4.54606756,9.87312704 C4.967632,9.91257358 5.37999644,9.85984403 5.799312,10.0592906 C6.13276089,10.2178818 6.54001422,10.0739824 6.94726756,10.2442465 C7.46737422,10.461605 8.101152,10.4175296 8.68668089,10.4807245 C8.910752,10.5048755 9.11417422,10.5356679 9.33906311,10.6228126 C9.63857422,10.7389384 10.1282187,10.7228377 10.4256853,10.6016805 C10.653232,10.5091019 10.8558364,10.5117182 11.0725476,10.4823346 C11.495952,10.4245736 11.9195609,10.5493535 12.3556409,10.3738566 C12.7056498,10.2329761 13.1922276,10.3682214 13.497872,10.1856805 C13.8936764,9.94960503 14.3990631,10.3084478 14.7024587,9.87815849 C15.3556587,9.81113962 16.0227609,9.80469937 16.6587876,9.66301384 C17.6842809,9.43498868 18.7424853,9.62658616 19.7379253,9.43518994 C20.7464498,9.24137862 21.7347342,9.35347925 22.7271076,9.26995723 C23.2122542,9.22890063 23.691472,9.11458616 24.1766187,9.08037233 C24.6511342,9.04696352 25.148752,9.15503899 25.6028231,9.05481258 C26.3703076,8.8851522 27.1171431,8.61647296 27.8623431,8.35986918 C28.8878364,8.00666164 29.816832,7.46366792 30.7026898,6.85446038 C31.2105298,6.50507673 31.7302276,6.1522717 32.1638542,5.72218365 C33.1100231,4.78371824 34.0108053,3.80057358 34.9089298,2.81702642 C34.9451164,2.77717736 34.9514542,2.71056101 34.9469564,2.62502642 C34.9346898,2.37888805 35.0223964,2.13979371 35.1982187,1.96449811 C35.7078987,1.45612075 36.2284142,0.825781132 36.956032,0.41843522 C37.0670453,0.356246541 37.1888942,0.211139623 37.278032,0.230259119 C37.730672,0.327466667 38.0937653,0.00183144654 38.5247342,0.0131018868 C39.0695787,0.027391195 39.6211698,-0.033791195 40.1586542,0.0285987421 C40.9265476,0.117755975 41.613072,0.46170566 42.1618009,0.991416352 C42.7072587,1.51790692 43.2696853,1.93471195 44.0819431,1.82643522 C44.4728409,1.77430943 44.8633298,1.90573082 45.2697653,1.73405786 C45.3511342,1.69984403 45.4621476,1.73345409 45.5891076,1.79081258" id="Fill-1" fill="#000000" mask="url(#mask-2)"></path>
                </g>
            </g>
        </g>
    </g>
</svg>