<?xml version="1.0" encoding="UTF-8"?>
<svg width="24px" height="24px" viewBox="0 0 24 24" version="1.1" xmlns="http://www.w3.org/2000/svg" xmlns:xlink="http://www.w3.org/1999/xlink">
    <title>Icon/Legend_outlined</title>
    <g id="Icon/Legend" stroke="none" stroke-width="1" fill="none" fill-rule="evenodd" fill-opacity="0.7">
        <path d="M12,2.5 C15.8596554,2.5 19,5.64034459 19,9.5 C19,11.3813929 18.132311,13.5675667 16.6487234,15.9612872 C15.6650155,17.5484679 14.539481,19.0243672 13.4956343,20.2346616 L13.4956343,20.2346616 L13.2161565,20.5523127 L12.649594,21.1801252 C12.3014453,21.5659116 11.6957644,21.5650419 11.3487251,21.1782572 L11.3487251,21.1782572 L10.5614712,20.3006747 C9.54697384,19.1330329 8.4186259,17.6660846 7.42041541,16.0722562 C5.89515181,13.6368898 5,11.4115603 5,9.5 C5,5.64034459 8.14034459,2.5 12,2.5 Z M12,4.25 C9.10684291,4.25 6.75,6.60684291 6.75,9.5 C6.75,11.0040918 7.53797928,12.9629925 8.90354701,15.1433748 C9.84675794,16.6493862 10.9227787,18.0483047 11.8732621,19.1424391 L11.8732621,19.1424391 L12.000875,19.283375 L12.1759899,19.0853286 C13.0500781,18.0718087 13.9950924,16.8473634 14.8466268,15.535276 L14.8466268,15.535276 L15.1612492,15.0393758 C16.4878489,12.8989503 17.25,10.978683 17.25,9.5 C17.25,6.60684291 14.8931571,4.25 12,4.25 Z M12.004375,13.660625 C12.427218,13.660625 12.77,14.003407 12.77,14.42625 C12.77,14.849093 12.427218,15.191875 12.004375,15.191875 C11.581532,15.191875 11.23875,14.849093 11.23875,14.42625 C11.23875,14.003407 11.581532,13.660625 12.004375,13.660625 Z M12,5.785625 C13.68875,5.785625 15.0625,7.159375 15.0625,8.848125 C15.0625,10.764375 12.77,10.956875 12.77,12.680625 C12.7641667,13.0432401 12.5075,13.2245476 12,13.2245476 C11.4925,13.2245476 11.23875,13.0432401 11.23875,12.680625 C11.23875,10.195625 13.53125,10.388125 13.53125,8.848125 C13.53125,8.008125 12.84,7.316875 12,7.316875 C11.16,7.316875 10.46875,8.008125 10.46875,8.848125 C10.4734093,9.18104384 10.222582,9.34750326 9.716268,9.34750326 C9.20995398,9.34750326 8.95036465,9.18104384 8.9375,8.848125 C8.9375,7.159375 10.31125,5.785625 12,5.785625 Z" id="Combined-Shape" fill="#02021E"></path>
    </g>
</svg>