<?xml version="1.0" encoding="UTF-8"?>
<svg width="14px" height="17px" viewBox="0 0 14 17" version="1.1" xmlns="http://www.w3.org/2000/svg" xmlns:xlink="http://www.w3.org/1999/xlink">
    <!-- Generator: sketchtool 63.1 (101010) - https://sketch.com -->
    <title>92551E8D-B189-476F-A048-8E286A39A2E1</title>
    <desc>Created with sketchtool.</desc>
    <g id="Explore---List-View" stroke="none" stroke-width="1" fill="none" fill-rule="evenodd">
        <g id="Explore-List-View-1440-px" transform="translate(-488.000000, -172.000000)">
            <g id="Card-1" transform="translate(297.000000, 80.000000)">
                <g id="Location" transform="translate(188.000000, 92.000000)">
                    <circle id="Oval-Copy" fill-opacity="0.0682091346" fill="#757575" cx="10.5" cy="10.5" r="6.5"></circle>
                    <g id="Icon/Location" fill="#8DCA22">
                        <path d="M9,0.75 C12.3082761,0.75 15,3.44172394 15,6.75 C15,8.36262249 14.2562666,10.2364858 12.98462,12.2882462 C12.1414418,13.6486868 11.176698,14.9137433 10.2819722,15.9511385 L10.2819722,15.9511385 L10.0424198,16.2234109 L9.55679484,16.7615359 C9.25838167,17.0922099 8.73922665,17.0914645 8.44176439,16.7599347 L8.44176439,16.7599347 L7.7669753,16.0077211 C6.89740615,15.0068853 5.93025077,13.7495011 5.07464178,12.3833625 C3.76727298,10.2959055 3,8.38848025 3,6.75 C3,3.44172394 5.69172394,0.75 9,0.75 Z M9,2.25 C6.52015106,2.25 4.5,4.27015106 4.5,6.75 C4.5,8.03922151 5.17541081,9.71827926 6.34589744,11.5871784 C7.15436395,12.8780453 8.07666749,14.0771183 8.89136749,15.0149478 L8.89136749,15.0149478 L9.00075,15.13575 L9.15084849,14.9659959 C9.90006696,14.0972646 10.7100792,13.04774 11.4399658,11.9230937 L11.4399658,11.9230937 L11.7096422,11.4980364 C12.8467276,9.66338597 13.5,8.01744256 13.5,6.75 C13.5,4.27015106 11.4798489,2.25 9,2.25 Z M9,3.9375 C10.5533009,3.9375 11.8125,5.19669914 11.8125,6.75 C11.8125,8.30330086 10.5533009,9.5625 9,9.5625 C7.44669914,9.5625 6.1875,8.30330086 6.1875,6.75 C6.1875,5.19669914 7.44669914,3.9375 9,3.9375 Z M9,5.0625 C8.06801948,5.0625 7.3125,5.81801948 7.3125,6.75 C7.3125,7.68198052 8.06801948,8.4375 9,8.4375 C9.93198052,8.4375 10.6875,7.68198052 10.6875,6.75 C10.6875,5.81801948 9.93198052,5.0625 9,5.0625 Z" id="Combined-Shape"></path>
                    </g>
                </g>
            </g>
        </g>
    </g>
</svg>