<?xml version="1.0" encoding="UTF-8"?>
<svg width="568px" height="550px" viewBox="0 0 568 550" version="1.1" xmlns="http://www.w3.org/2000/svg" xmlns:xlink="http://www.w3.org/1999/xlink">
    <!-- Generator: Sketch 55.1 (78136) - https://sketchapp.com -->
    <title>Placeholder Animal Image</title>
    <desc>Created with Sketch.</desc>
    <defs>
        <polygon id="path-1" points="0 0 73 0 73 138 0 138"></polygon>
        <polygon id="path-3" points="0.600463997 0.289210425 183.600464 0.289210425 183.600464 97.2892104 0.600463997 97.2892104"></polygon>
    </defs>
    <g id="Placeholder-Animal-Image" stroke="none" stroke-width="1" fill="none" fill-rule="evenodd">
        <polygon id="Rectangle" fill="#D7D5D3" points="1 2 568 2 568 468.722315 568 550 1 550"></polygon>
        <path d="M416.61006,331 C428.687001,337.232529 440.762948,343.464053 453,349.780005 C451.330271,353.983268 449.607835,358.325234 446.957551,365 C435.812436,353.514899 425.406218,342.792657 415,332.06941 C415.537018,331.71361 416.074036,331.3558 416.61006,331" id="Fill-1" fill="#F6F4F3"></path>
        <g id="Group-5" transform="translate(494.000000, 382.000000)">
            <mask id="mask-2" fill="white">
                <use xlink:href="#path-1"></use>
            </mask>
            <g id="Clip-4"></g>
            <path d="M0,64.9011926 C1.5906269,53.9978634 2.46713868,44.1325648 4.65035207,34.5257719 C5.86133644,29.1963464 8.07358765,23.2577293 11.9399188,19.4472752 C17.8034061,13.6679697 25.1972939,9.05795151 32.4836341,4.74651744 C47.1670885,-3.9414781 63.0529235,-0.336425859 73.7334615,12.5688195 C77.7460572,17.4163022 83.1815057,21.7678147 88.9256154,24.7396282 C101.066648,31.0219176 111.102977,38.9554373 118.204335,50.145327 C125.447657,61.555648 133.095356,72.7425319 140.293508,84.175898 C147.962717,96.3557243 149.089814,109.226903 143.491969,122.369613 C136.594951,138.564293 115.980254,143.31158 102.673407,131.194877 C93.3673254,122.723305 82.3480129,120.843628 70.3683016,117.965999 C56.3946604,114.609432 42.8974544,112.72174 28.6732277,112.995275 C26.4932407,113.037357 22.1139083,109.725879 22.3440598,108.612701 C26.6685431,87.7739365 12.8250343,75.5670573 0,64.9011926" id="Fill-3" fill="#F6F4F3" mask="url(#mask-2)"></path>
        </g>
        <path d="M490.521102,360.800602 C492.206234,345.40618 500.071518,341.333202 512.952243,348.264618 C516.282553,350.055615 520.07435,352.195469 521.926298,355.221876 C524.524419,359.465803 527.977592,367.988443 526.740962,368.905807 C522.079129,372.361576 515.775115,374.451735 509.868661,375.108699 C506.260659,375.508245 502.254099,372.353625 499.611028,371.278232 C496.368622,376.385853 494.117117,384.280352 489.938747,385.470043 C483.954379,387.173577 476.46468,384.367815 469.809056,382.721927 C466.170088,381.821459 462.853764,379.471893 459.51846,377.558648 C450.138854,372.179694 449.482582,365.762121 457.846313,358.880399 C468.81216,349.859818 479.470349,354.329359 490.521102,360.800602" id="Fill-6" fill="#F6F4F3"></path>
        <path d="M445.813587,383.912838 C456.316268,377.293544 482.601292,389.016179 484.789475,401.294292 C486.78885,412.509925 474.145685,423.760907 463.889448,418.791892 C456.014176,414.977264 448.700359,409.191189 442.432934,402.939521 C436.484496,397.005992 438.685597,388.404141 445.813587,383.912838" id="Fill-8" fill="#F6F4F3"></path>
        <path d="M477.817721,433.246101 C477.546788,440.315407 478.85663,448.34562 476.907307,449.275071 C470.490579,452.331301 462.424348,455.035435 455.890083,453.607774 C450.329981,452.393197 444.742985,446.07983 441.419076,440.604593 C435.170685,430.310619 441.681044,420.115069 453.451686,422.297656 C461.623502,423.813594 469.108024,429.173157 477.817721,433.246101" id="Fill-10" fill="#F6F4F3"></path>
        <path d="M471.127799,476.443525 C467.339769,469.166767 468.437992,464.962463 475.807825,462.121662 C484.925145,458.606222 493.417868,459.210755 500.750206,465.814906 C506.751455,471.22015 507.506298,478.484716 503.532765,485.354048 C499.502988,492.32092 492.768605,492.120763 486.830506,488.629707 C481.184478,485.311375 476.329802,480.563499 471.127799,476.443525" id="Fill-12" fill="#F6F4F3"></path>
        <path d="M431.83894,444 C417.554821,435.859366 404.277411,428.290981 391,420.72359 C391.466424,419.482724 391.93386,418.241859 392.401296,417 C401.185452,419.154874 410.018173,421.139861 418.744659,423.502373 C432.395411,427.199139 432.36607,427.306436 431.83894,444" id="Fill-14" fill="#F6F4F3"></path>
        <path d="M403.150333,384 C412.985982,384.283526 422.822628,384.568046 434,384.891365 C433.861442,390.583764 433.732852,395.821528 433.53249,404 C421.999252,397.799244 412.000125,392.424194 402,387.04815 L403.150333,384 Z" id="Fill-16" fill="#F6F4F3"></path>
        <path d="M471,485 C454.314944,482.063931 444.402838,473.952249 436,460 C444.331885,462.630229 451.832609,463.364246 457.063858,467.10438 C462.417753,470.934294 465.547785,477.710142 471,485" id="Fill-18" fill="#F6F4F3"></path>
        <path d="M493,336.375288 C490.286357,340.335524 488.205965,343.37003 485.718629,347 C480.519679,340.912258 475.259839,334.751561 470,328.590864 C470.550035,327.727243 471.100071,326.863621 471.651121,326 C478.716334,329.433782 485.782563,332.867565 493,336.375288" id="Fill-20" fill="#F6F4F3"></path>
        <path d="M1,240 L1,145.690747 C9.31417717,141.899348 17.3651885,137.738196 23.3400135,129.801967 C25.5914984,126.812097 31.3527391,125.724145 35.6836718,125.167169 C54.7997884,122.705276 79.9322008,147.949178 78.4098729,167.023349 C77.7307267,175.529979 78.7219401,184.169603 79,194.402158 C65.227034,204.9287 50.2128006,216.070216 53.325471,238.50424 C50.9679633,238.915222 48.960531,239.910179 47.3961941,239.4372 C31.8677434,234.75056 16.3797788,238.832334 1,240 Z" id="Combined-Shape" fill="#F6F4F3"></path>
        <path d="M92.9424418,109.164835 C98.1111309,107.6473 102.648169,105.782439 107.359941,105.04639 C116.536448,103.612658 123.977673,107.152562 128.801917,115.084531 C132.350809,120.918406 132.023436,126.392838 124.688657,129.259292 C119.284982,131.370512 113.843146,133.470626 108.267751,135.029557 C91.0434732,139.845684 85.883822,136.199765 84.6777611,120.01879 C77.4755387,120.168221 69.9499595,121.895767 63.3834046,120.092496 C53.6395167,117.41586 52.2878448,109.223395 59.8616263,102.50404 C64.0823375,98.7601828 69.2379718,95.5120736 74.5321877,93.6704351 C88.0067303,88.9825362 94.2037345,94.1661832 92.9424418,109.164835" id="Fill-24" fill="#F6F4F3"></path>
        <path d="M124.238897,166.600487 C121.023848,168.020675 117.350937,170.150958 113.38748,171.28592 C105.053799,173.672708 97.6338385,169.925154 94.5089589,162.300307 C91.2498268,154.350619 93.1824631,146.120657 101.162478,142.825701 C109.260715,139.482217 118.312747,137.274686 127.024137,137.002334 C131.033681,136.876557 137.449753,141.859101 138.713131,145.797797 C139.964485,149.696877 136.874671,155.680684 134.22168,159.833299 C132.35116,162.760828 128.029028,164.157248 124.238897,166.600487" id="Fill-26" fill="#F6F4F3"></path>
        <path d="M123.532357,204.857898 C114.806104,210.331166 106.377201,207.848915 98.674151,203.532483 C92.9243957,200.310301 92.8843487,194.518045 96.356428,189.187111 C102.505653,179.744664 111.632375,175.059781 122.519166,176.157059 C126.893305,176.598191 132.627042,180.039425 134.504247,183.771382 C136.067084,186.877476 133.614202,192.779763 131.590824,196.744904 C129.937882,199.984247 126.293601,202.191926 123.532357,204.857898" id="Fill-28" fill="#F6F4F3"></path>
        <path d="M85.9028385,236.762021 C81.1538362,236.616762 74.1398474,237.916128 68.6671395,235.629802 C65.7147842,234.396101 62.871439,225.753231 64.4520846,222.714745 C67.1914666,217.451618 72.8640262,211.535824 78.3104909,210.340925 C84.4635022,208.990818 91.9771203,211.919863 98.3229178,214.414127 C99.8783297,215.025008 100.725176,222.112818 99.1879327,224.585195 C96.6171126,228.716103 91.8650822,231.526752 85.9028385,236.762021" id="Fill-30" fill="#F6F4F3"></path>
        <path d="M184,181.97528 C170.142071,187.92276 156.284142,193.869244 142,200 C142.401201,183.680536 142.389195,183.599855 156.551276,181.483225 C165.328664,180.171413 174.151076,179.151447 182.952476,178 C183.301651,179.324761 183.650825,180.650518 184,181.97528" id="Fill-32" fill="#F6F4F3"></path>
        <path d="M172,94.786176 C160.233818,102.700646 148.468639,110.615117 136.001707,119 C134.497804,113.556937 133.268981,109.109398 132,104.514669 C144.98597,99.9259075 157.617549,95.463451 170.249128,91 C170.832417,92.2620587 171.415707,93.5241174 172,94.786176" id="Fill-34" fill="#F6F4F3"></path>
        <path d="M178,146.76174 C167.554795,150.96305 157.108578,155.164361 145.0854,160 C145.061093,155.146436 144.914234,152.456761 145.072234,149.783019 C145.222131,147.269602 145.695118,144.773113 146.192412,141 C156.780424,141.958962 167.093962,142.891038 177.408514,143.825105 C177.605,144.803983 177.8025,145.782862 178,146.76174" id="Fill-36" fill="#F6F4F3"></path>
        <path d="M135,216.088019 C125.828386,227.52363 114.625713,234.379606 99,236 C107.248589,221.562217 118.713106,215.159513 135,216.088019" id="Fill-38" fill="#F6F4F3"></path>
        <path d="M117,80.6367107 C111.333836,85.9532604 105.667672,91.2698102 99.561086,97 C97.3207642,93.2184276 95.3750628,89.9308708 93,85.9209142 C100.783811,83.1646203 108.073906,80.5818201 115.365008,78 C115.910005,78.8792303 116.455003,79.7584606 117,80.6367107" id="Fill-40" fill="#F6F4F3"></path>
        <path d="M419.907382,117.556573 C430.289222,117.077983 440.696948,116.906413 451.045935,116.028495 C460.149459,115.255928 484.093997,130.37517 486.244436,139.20451 C486.976182,142.214512 487.515783,146.174672 486.194657,148.640867 C478.634272,162.759784 471.708067,177.400436 452.748365,179.828504 C443.980349,180.953242 435.608572,185.050858 426.990887,187.563207 C411.982617,191.940754 404.676103,186.302016 403.010508,170.829601 C401.951218,160.987896 399.419475,151.250539 396.911625,141.635588 C392.685415,125.430739 403.628759,112.638229 419.907382,117.556573" id="Fill-42" fill="#F6F4F3"></path>
        <path d="M444,89.8009559 C440.264357,94.42854 437.397607,101.130976 432.587804,103.191712 C425.616729,106.177966 420.098459,100.344589 415.919401,94.5979156 C409.00313,85.0826349 408.407261,74.8394422 412.78162,64.1607122 C415.178052,58.311204 419.514547,56.7878315 425.321783,58.911076 C437.010989,63.1857942 443.928257,75.2265865 444,89.8009559" id="Fill-44" fill="#F6F4F3"></path>
        <path d="M404.717864,101.321649 C403.792874,102.717955 402.115584,108.084818 399.291982,108.791986 C395.806396,109.665429 390.570077,107.661119 387.48843,105.151975 C378.197835,97.5874821 375.380188,81.597074 380.595664,70.328464 C383.212831,64.6761292 387.84473,63.0814956 391.991307,67.6901067 C399.777304,76.3433976 406.472567,85.8881607 404.717864,101.321649" id="Fill-46" fill="#F6F4F3"></path>
        <path d="M450.130236,73.1889654 C451.423686,71.4760802 454.12593,64.9920818 456.808457,65 C461.284265,65.0138768 466.931275,68.1810797 469.970684,71.8099393 C476.176677,79.2212139 477.723493,88.1234614 473.996939,97.7429609 C471.112311,105.188909 465.388403,107.381283 459.428875,102.077184 C451.731274,95.2266346 449.387883,86.163897 450.130236,73.1889654" id="Fill-48" fill="#F6F4F3"></path>
        <path d="M368.733297,121.222131 C379.008743,122.512817 387.374373,132.083356 385.811344,141.388483 C384.446054,149.514987 377.92764,149.348859 371.708317,148.752175 C361.345429,147.75639 352.132207,138.10033 353.065254,129.499035 C353.738956,123.295289 359.789357,120.098556 368.733297,121.222131" id="Fill-50" fill="#F6F4F3"></path>
        <path d="M499.736669,92.6093371 C497.878263,105.378544 492.024383,112.377859 485.40039,110.773191 C476.494427,108.614542 476.535973,101.592515 477.327366,94.7294737 C478.527123,84.2976508 484.927175,77.5807577 492.115581,79.2555373 C500.746937,81.2660628 500.304122,87.898032 499.736669,92.6093371" id="Fill-52" fill="#F6F4F3"></path>
        <path d="M340.11077,93 C342.454487,101.437748 355.282774,107.25011 347.548506,120 C338.74428,111.625753 337.723235,102.785168 340.11077,93" id="Fill-54" fill="#F6F4F3"></path>
        <path d="M447.252171,32 C451.926074,39.0548833 456.599977,46.1097666 462,54.2607449 C457.324102,55.4030015 454.242079,56.1563212 450.787022,57 C448.79418,48.7910741 446.89709,40.9750138 445,33.1599356 C445.750059,32.772963 446.501115,32.3869726 447.252171,32" id="Fill-56" fill="#F6F4F3"></path>
        <path d="M412.29383,23 C416.057378,30.7135729 419.821917,38.4271457 424,46.9870259 C420.595452,47.7175649 418.025926,48.2694611 414.62237,49 C413.026705,40.3353293 411.514344,32.1137725 410,23.8932136 C410.76461,23.5958084 411.52922,23.2974052 412.29383,23" id="Fill-58" fill="#F6F4F3"></path>
        <path d="M377.094863,34 C380.302015,42.0752414 383.508183,50.151488 387,58.9464049 C384.048947,60.0399899 381.835657,60.8601788 378.760494,62 C377.119488,52.6633162 375.559251,43.7879887 374,34.911656 C375.031293,34.6081057 376.06357,34.3035503 377.094863,34" id="Fill-60" fill="#F6F4F3"></path>
        <path d="M492,69.886925 C477.633919,71.1695672 484.623578,61.2125397 481,56.6126123 C482.013444,56.0747301 483.025853,55.5378822 484.039297,55 C486.692865,59.9629979 489.346432,64.9249614 492,69.886925" id="Fill-62" fill="#F6F4F3"></path>
        <g id="Group-69" transform="translate(0.000000, 452.000000)">
            <mask id="mask-4" fill="white">
                <use xlink:href="#path-3"></use>
            </mask>
            <g id="Clip-68"></g>
            <path d="M142.487,110.9358 C134.452,108.9268 126.34,107.1798 118.4,104.8458 C107.379,101.6068 96.919,101.9878 86.385005,107.0558 C74.07,112.9818 61.261,117.8858 47.684,120.0058 C41.451,120.9798 34.964,121.2598 28.681,120.7498 C19.674,120.0178 12.285,115.3688 6.768,108.3048 C2.417,102.7338 -1.592,96.8438 -5.229,90.7828 C-8.735,84.9398 -8.491,78.6588 -3.739,73.6448 C0.749,68.9098 5.633,64.2768 11.107,60.8048 C24.017,52.6168 32.724,41.6498 37.289,27.0248 C38.947,21.7138 41.697,16.6068 44.697,11.8808 C49.609,4.1448 57.147,-0.0962 66.246,0.3168 C75.736,0.7478 85.229,2.0998 94.605,3.7188 C103.343,5.2278 109.744,10.8388 114.96,17.7258 C119.55,23.7868 124.341,29.7618 128.258,36.2498 C135.107,47.5978 145.183,54.0928 157.524,57.8168 C163.509,59.6228 169.489,61.5108 175.307,63.7828 C183.513,66.9858 185.613,72.2998 181.68,80.2048 C176.802,90.0058 170.035,98.3568 160.954,104.6338 C155.485,108.4148 149.397,110.3668 142.683,110.1308 C142.618,110.3998 142.552,110.6678 142.487,110.9358" id="Fill-67" fill="#F6F4F3" mask="url(#mask-4)"></path>
        </g>
        <path d="M53,428.309354 C52.9707523,435.294047 52.0560052,440.831037 49.0273551,445.853355 C44.4667306,453.414923 36.817952,455.976245 28.7244067,452.422699 C26.2948302,451.356234 23.8279378,449.983775 21.9278456,448.178911 C9.44210217,436.30734 4.63035078,421.810238 8.09166513,404.939424 C9.90603125,396.092681 15.9270239,390.52158 23.3640087,390.037006 C28.8393804,389.679845 33.4726199,391.942196 37.5501531,395.345252 C45.5942799,402.059066 49.9622731,410.902799 52.0620564,420.949441 C52.6490276,423.760575 52.7982917,426.663005 53,428.309354" id="Fill-70" fill="#F6F4F3"></path>
        <path d="M17.6221736,481.790098 C15.802714,491.801849 9.4295619,497.421315 1.08414028,496.975321 C1.08414028,491.801849 1,448.600359 1,443 C11.7580048,451.632511 17.1669731,463.026564 18,476.094348 C17.8512811,478.501809 17.915592,480.178093 17.6221736,481.790098 Z" id="Combined-Shape" fill="#F6F4F3"></path>
        <path d="M103.998315,411.181828 C104.062339,418.343929 102.306691,426.118142 97.8660529,433.123189 C94.8489398,437.882151 90.9595049,441.72496 85.1993799,442.737762 C78.1177674,443.983126 72.8378195,440.677928 68.6942909,435.261551 C62.8531359,427.625264 60.9394299,418.70737 61.0014528,409.315292 C61.0454691,402.645496 62.2989315,396.156918 65.374066,390.150579 C66.1713601,388.594125 67.0446823,387.055794 68.0590565,385.63626 C76.2570809,374.166225 88.6046362,374.121928 96.9347093,385.500347 C101.48939,391.72012 104.024325,400.548412 103.998315,411.181828" id="Fill-74" fill="#F6F4F3"></path>
        <path d="M148,476.963406 C149.143533,461.014631 155.816453,448.25038 169.295078,439.669776 C172.134091,437.861691 175.617209,436.59895 178.940787,436.161267 C188.916476,434.849223 196.465378,441.65394 196.945979,452.532632 C197.710976,469.889036 190.325578,483.265038 176.416889,492.987643 C171.870504,496.166129 166.633441,497.601931 161.030725,496.765805 C154.254748,495.754606 148.987957,489.21753 148.217014,480.988079 C148.092156,479.651888 148.069365,478.304628 148,476.963406" id="Fill-76" fill="#F6F4F3"></path>
        <path d="M112,429.936923 C113.043902,418.6132 116.253849,408.428466 123.51362,399.958232 C126.182799,396.843055 129.580927,394.057744 133.174166,392.130686 C141.66899,387.577734 150.034068,390.512438 154.574148,399.111008 C157.965343,405.532865 158.529882,412.448017 157.598888,419.520581 C156.113259,430.8042 151.846535,440.803447 143.080337,448.207883 C140.212083,450.630241 136.556447,452.58036 132.949341,453.517821 C125.599442,455.424827 118.758619,451.569707 115.620972,443.821369 C113.842179,439.429841 113.170675,434.580111 112,429.936923" id="Fill-78" fill="#F6F4F3"></path>
        <path d="M81.2770705,347 C83.4654785,355.136627 85.7142429,363.5013 88,372 L75,372 C77.0608806,363.792358 79.2210574,355.189638 81.2770705,347" id="Fill-80" fill="#F6F4F3"></path>
        <path d="M189,430.423681 C194.224112,424.735802 199.703987,418.767777 205,413 C203.393529,421.464058 201.703858,430.370079 200.065545,439 C196.307184,436.088299 192.514926,433.148281 189,430.423681" id="Fill-82" fill="#F6F4F3"></path>
        <path d="M20,383.255117 C16.2124688,385.38344 12.2703242,387.599228 8,390 L8,365 C11.7426434,370.694294 15.9770574,377.134556 20,383.255117" id="Fill-86" fill="#F6F4F3"></path>
        <path d="M157,366 L157,391 C152.679921,388.608992 148.663752,386.384123 145,384.355419 C148.943904,378.323352 153.163009,371.869931 157,366" id="Fill-88" fill="#F6F4F3"></path>
        <path d="M298.747878,6.28003908 C296.054084,5.60243354 294.718734,6.64528743 294.351261,9.42456789 C292.922536,20.2193531 293.70969,30.1199784 303.797111,37.1235656 C308.149551,40.1443491 309.353375,46.5681295 307.118419,51.4490849 C305.396519,55.2073507 300.211744,58.1961999 296.677583,57.3639126 C293.084184,56.5186521 290.59019,54.5546938 289.214679,50.9111918 C287.261854,45.7388361 285.03493,40.6493099 282.602182,35.6805353 C279.765817,29.8874569 272.545887,29.5082373 267.812922,33.9301374 C263.178351,38.2592285 264.935392,43.7070174 264.117113,48.6368722 C263.539799,52.1177089 264.411292,55.8300692 264.584988,59.4416368 C264.854066,65.0620705 261.603039,70.2703522 256.425292,72.5965651 C251.90518,74.6273858 244.853925,68.6167552 245.597906,62.9384407 C246.059757,59.4166882 247.458361,55.9847508 248.677245,52.5977211 C250.826859,46.6290042 253.780695,40.9117698 252.747555,34.198585 C251.68329,27.283815 245.862968,23.8558695 239.696258,27.2888048 C235.575748,29.5820854 231.975321,32.8274068 228.240355,35.7693525 C225.378889,38.0217173 222.708187,40.5105954 219.882866,42.8088657 C216.676016,45.4184953 213.168964,46.800651 209.488215,43.8497237 C206.331566,41.3179339 205.161879,33.882236 207.684989,30.7287257 C209.451066,28.5212684 211.905902,26.6640904 214.404916,25.2709573 C220.312588,21.9767366 226.537531,19.2403678 232.416087,15.8982456 C235.278557,14.2705952 237.59283,11.6679512 234.57574,8.20906929 C233.772522,7.28996074 232.107852,6.41476183 230.996398,6.57842502 C225.471259,7.39274921 219.934071,8.30487214 214.526403,9.67205858 C208.339612,11.2358404 202.515274,8.83278573 201.239161,3.67739511 C201.101998,3.12362266 201.023924,2.56227343 201,2 C205.51721,2.01119887 319.364506,2 323,2.00357388 C322.866229,2.74805966 322.62131,3.42820615 322.269128,3.91191249 C319.700837,7.43466296 316.320291,10.2309085 311.31122,9.19304435 C310.656597,9.0583216 309.989925,8.98347563 308.081277,8.68608763 C305.782064,8.09131163 302.269991,7.16721335 298.747878,6.28003908 Z" id="Fill-90" fill="#F6F4F3"></path>
        <path d="M195.133576,52 C194.38676,47.2023693 196.885684,41.4018791 199.78416,42.0498172 C201.775999,42.4965643 204.202906,44.8819669 204.840215,46.941337 C205.833668,50.1490431 202.145954,51.9546031 195.133576,52" id="Fill-92" fill="#F6F4F3"></path>
        <path d="M258,82.4570028 C254.637001,85.6352714 252.328401,87.8176357 250.019802,90 C249.300713,87.7143345 248.005959,85.4296718 248,83.1430034 C247.991122,79.9386588 250.459959,78.5726752 253.418409,79.1162604 C254.641947,79.3419185 255.663705,80.694864 258,82.4570028" id="Fill-94" fill="#F6F4F3"></path>
        <path d="M314,69.8992192 C311.9089,71.7598511 310.649679,72.8804249 309.390458,74 C307.815936,71.9845651 305.294519,70.0939713 305.007972,67.906755 C304.822559,66.4965498 307.91707,64.6508989 309.542159,63 C310.893591,65.092337 312.246014,67.1846741 314,69.8992192" id="Fill-97" fill="#F6F4F3"></path>
        <path d="M501,-3.12685877 C503.192873,-4.45088992 505.431849,-6.30169704 505.831737,-5.95827962 C507.519488,-4.51268479 508.660022,-2.41267211 510,-0.551734685 C508.137862,0.391396913 506.258686,2.04466304 504.420601,1.99907666 C503.38931,1.97273786 502.428174,-0.866787238 501,-3.12685877" id="Fill-98" fill="#F6F4F3"></path>
        <path d="M289.933578,293.393548 C289.933578,289.884286 290.729605,286.139811 289.776966,282.908618 C287.424794,274.933294 283.863617,267.55896 278.596667,260.797576 C276.141749,257.646117 275.716802,252.199335 276.025039,247.911676 C276.182648,245.715024 279.714896,242.667218 282.214703,242.072208 C284.270609,241.582845 287.485643,243.676841 289.423841,245.454894 C293.32717,249.034919 293.9606,254.118914 295.335194,259.124173 C299.445012,274.084135 302.7997,289.598243 314.720165,301.062896 C316.603498,302.875832 318.217499,305.020658 319.701822,307.18741 C323.377714,312.553462 326.780284,313.792318 332.599865,310.672752 C337.641373,307.97079 342.033491,307.678767 347.032106,310.880059 C353.332496,314.916558 361.583054,313.202292 366.771199,307.45352 C367.870476,306.235594 368.877979,304.823318 370.220653,303.955221 C375.342961,300.644296 381.028873,301.293126 383.330172,305.256868 C386.67688,311.021586 384.877338,317.952403 378.96798,320.640412 C373.883577,322.953675 368.221606,324.159641 363.443444,326.935357 C358.589471,329.753929 353.434244,333.147578 350.310982,337.615634 C344.374691,346.111217 336.339599,349.044406 326.800234,349.652373 C320.929779,350.027119 316.267331,352.617455 311.765485,356.273227 C306.364866,360.657563 301.012129,365.198374 292.876287,363.712345 C284.744435,362.225319 280.694469,356.836344 277.347761,350.237416 C274.162653,343.960411 271.408477,337.396367 267.58096,331.535969 C264.127517,326.246661 258.180252,324.521431 251.983605,324.087881 C248.526172,323.845691 245.048788,323.715128 241.623275,323.235732 C237.039632,322.594875 234.862027,319.1793 235.252061,313.808265 C235.59122,309.12792 238.661613,308.097367 242.545989,308.581746 C247.089731,309.147853 251.579606,310.142526 256.123348,310.702652 C257.932865,310.925906 259.825177,310.482389 261.680579,310.342856 C261.212739,308.402346 261.274585,306.071144 260.181294,304.588104 C256.353778,299.396469 251.942707,294.938381 245.49169,292.650035 C240.561905,290.902879 236.484008,287.257073 235.253058,282.019592 C234.591697,279.211983 235.283982,275.599067 236.663563,273.052585 C237.171305,272.114722 241.492599,272.855245 243.934548,273.426335 C249.501755,274.727981 252.423515,279.106336 255.429069,283.572398 C258.340854,287.89793 261.765369,291.929445 265.362457,295.711794 C266.289161,296.686534 268.871762,296.719424 270.376035,296.224081 C271.028419,296.007804 271.359598,293.236075 270.998493,291.842735 C270.060816,288.231813 269.104186,284.498301 267.338561,281.259135 C264.523536,276.096404 260.732927,271.460909 257.974761,266.27326 C256.43757,263.382928 255.601641,259.839779 255.525829,256.56573 C255.48493,254.776714 257.340333,251.951165 258.970295,251.376089 C260.907495,250.692376 264.31605,251.114962 265.699622,252.471425 C270.546612,257.22652 273.355652,263.175621 274.866908,269.971889 C276.384149,276.796064 278.641556,283.531535 281.375781,289.967009 C282.22368,291.962335 285.690092,292.848372 287.958471,294.242708 C288.61684,293.958658 289.275209,293.676601 289.933578,293.393548" id="Fill-102" fill="#F6F4F3"></path>
        <path d="M273,229.527839 C274.758388,226.838479 276.012393,224.918229 277.267391,223 C278.597848,225.270948 280.513111,227.423649 280.988699,229.866409 C281.197204,230.938717 278.468774,232.604282 277.074773,234 C275.864454,232.670985 274.654135,231.342981 273,229.527839" id="Fill-104" fill="#F6F4F3"></path>
        <path d="M255.560053,233 C256.878922,236.348402 261.606283,238.919587 257.083538,242.551992 C256.055159,243.377723 252.143079,242.951213 251.781557,242.167932 C250.175378,238.68713 250.862377,235.374101 255.560053,233" id="Fill-106" fill="#F6F4F3"></path>
        <path d="M231.250681,270 C230.428385,269.177962 229.015533,268.414432 229.002718,267.630424 C228.960001,265.091175 229.430952,262.544125 229.703271,260 C230.942053,260.190151 232.856826,259.994149 233.300011,260.639688 C235.032171,263.163335 236.13426,265.947343 233.081088,268.476841 C232.558878,268.910775 232.037735,269.345685 231.250681,270" id="Fill-108" fill="#F6F4F3"></path>
        <path d="M236,304.237696 C233.861036,306.267748 232.423406,307.634384 230.984717,309 C229.914705,307.268995 228.212221,305.604332 228.005634,303.78249 C227.876385,302.643457 230.002637,301.268655 231.117144,300 C232.518754,301.215582 233.920363,302.432184 236,304.237696" id="Fill-110" fill="#F6F4F3"></path>
    </g>
</svg>