<svg xmlns="http://www.w3.org/2000/svg" xmlns:xlink="http://www.w3.org/1999/xlink" viewBox="0 0 556.78 279.36"><defs><style>.cls-1{fill:#1d0104;}.cls-2{fill:url(#linear-gradient);}.cls-3{fill:#d9d5c3;}</style><linearGradient id="linear-gradient" x1="329.03" y1="302.26" x2="510.86" y2="146.02" gradientUnits="userSpaceOnUse"><stop offset="0" stop-color="#272424"/><stop offset="1" stop-color="#1d0104"/></linearGradient></defs><title>Raccoon</title><g id="Animal"><path class="cls-1" d="M306.37,279.36c-14.4-26.88-38.33-60-77.17-79.6C170.34,170,90,177.6,39.77,221.31,20.75,237.86,9.35,256.72,0,279.36Z"/><path class="cls-2" d="M556.78,279.36A274.2,274.2,0,0,0,540.4,216l1.39.53c0-2-1.93-5.64-4.49-9.75.64.22,1.29.46,2,.74,0-1.64-1.36-4.45-3.27-7.72l.38.15c-.12-4.79-11-19.58-16.28-26.41-3.75-6.53-4.38-7.83-8.45-13.88,1.12,0,3.31-1.32,4.6-1.2-.27-.82-5.28-5.51-6.28-6.67.6.08,1.23.17,1.88.29-1.45-6.13-24.76-25.39-24.76-25.39h0c-32-37.16-67.57-58.17-90.23-51.46-22,6.5-41,41.77-51.16,60.65-11.56,21.42-11.32,29.8-18.79,46-25,54.06-70.37,53-87,85.27a55.47,55.47,0,0,0-4.51,12.24Z"/><path class="cls-3" d="M380.89,26.89a4.74,4.74,0,0,0-.69.74c-1.71,2.34-.73-.07.37-.86-5.5-2-24.94-3-27-3.08-13.29-.75-26.7.1-39.17,4.86L280.56,4.33c-1.65-1.18-6-.37-5.93,2.21.42,15.49,1.08,31,1.27,46.48,0,.49-.06,1-.06,1.26-.46.54-1,1.07-1.41,1.44A97.5,97.5,0,0,0,265.07,68c-7.92,11.49-14.63,24.13-16.54,38.11-.22,1.64,1.79,2.51,3.13,2.35,26.83-3.13,60.81,4.39,70.64,32.68a2.55,2.55,0,0,0,2.21,1.65c5.21.57,12.39,2.81,17.45,1.13,5.46-1.8,11-6.25,16.09-8.9,26.33-13.66,54.77-25.46,84.42-29,1.49-.18,3.51-1,3.65-2.79,1.36-16.8-9.15-32.7-21.14-43.37q-3.3-29.07-6.59-58.14C418.11-.79,414-.08,412.81.92l-17,13.9-12.16,10c-.69.57-1.61,1.14-2.4,1.77"/><path class="cls-1" d="M269,107.94s5.86-32.86,20.14-40,28.46-14,30.24-.08S309,98.3,304.74,105.08,298,115,298,115,286.58,108.61,269,107.94Z"/><circle class="cls-3" cx="303.27" cy="78.28" r="9.09"/><path class="cls-1" d="M365.33,131.42c-5.65,2.83,0-16.18-12.26-32.11-2.33-3-7.24-9.91-8.21-19a8.49,8.49,0,0,1,.23-3c2.25-9.48,14.3-17,22.28-14.63a28,28,0,0,1,5.2,2.63,55.56,55.56,0,0,1,4.91,3.18,99.5,99.5,0,0,0,10.63,6.68c7.61,4.72,6.8,14.72,13.52,33.4l2,5.62a.79.79,0,0,1-.46,1c-11,4.23-13.34,4.88-16.51,6.24C379.12,124.74,378,125.11,365.33,131.42Z"/><circle class="cls-3" cx="363.8" cy="77.11" r="9.09" transform="translate(-5.83 36.22) rotate(-5.65)"/><path class="cls-1" d="M365.13,76.67a2.33,2.33,0,0,0-1.44-1.16,2.76,2.76,0,0,0-2.86,1.16,8.12,8.12,0,0,0-1.56,3.14,6.56,6.56,0,0,0,.26,4.77A2.32,2.32,0,0,0,361,85.74a2.15,2.15,0,0,0,.56.08,3.06,3.06,0,0,0,2.29-1.24,8.13,8.13,0,0,0,1.57-3.14A6.56,6.56,0,0,0,365.13,76.67Z"/><path class="cls-1" d="M302.72,77.18c-1.78-.47-3.63,1.34-4.42,4.31h0c-.78,3-.07,5.46,1.71,5.93a2.19,2.19,0,0,0,.56.07,3.05,3.05,0,0,0,2.3-1.24,8.05,8.05,0,0,0,1.56-3.14C305.21,80.15,304.49,77.65,302.72,77.18Z"/><path class="cls-1" d="M416.53,47.45q-1.53-16-3.08-31.93c-.28-2.9-5-1.19-6.13-.12L386.59,35a1.93,1.93,0,0,0,.23,3l23.39,12.53c1.09,1.59,4.91.78,6-1.21A1.37,1.37,0,0,0,416.53,47.45Z"/><path class="cls-1" d="M305.9,34.94a1.72,1.72,0,0,0-.68-1.12L287.46,19.2c-1.7-1.41-6.21.27-5.94,2.66l2.94,25.67c.26,2.21,4.49,1.11,5.48.37l14.81-11C305.74,36.12,306,35.47,305.9,34.94Z"/><path class="cls-1" d="M326.22,122.76c-4.57,2-4.81,6.55-5.13,12.76-.21,4-.34,7.78,2.61,11.79.76,1,5.22,7.06,10.49,6.66,5-.37,8-6.35,8.75-9.84s-.72-3.69-1.21-11.07c-.37-5.68.43-6.88-1.26-8.48C337.6,121.83,330.59,120.85,326.22,122.76Z"/><path class="cls-1" d="M499.29,77.49"/><path class="cls-3" d="M344.81,24.14s-26.92-1.65-28.94-1,4.86.46,4.34,3.18S344.81,24.14,344.81,24.14Z"/><path class="cls-3" d="M347.8,23.32s-31.89-1.05-34.48.13,6.26.79,5.58,5.53S347.8,23.32,347.8,23.32Z"/><path class="cls-3" d="M348.6,22.75S323.34,20,321.25,20.32s4.74,1.2,3.81,3.81S348.6,22.75,348.6,22.75Z"/><path class="cls-3" d="M277.57,54.75s-16.88,14-17.8,15.69,3.72-2,5.3.93S277.57,54.75,277.57,54.75Z"/><path class="cls-3" d="M271.68,63.21s-16.88,14-17.8,15.69,3.72-2,5.3.93S271.68,63.21,271.68,63.21Z"/><path class="cls-3" d="M267.91,73.84s-16.88,14-17.8,15.69,3.71-2,5.3.93S267.91,73.84,267.91,73.84Z"/><path class="cls-3" d="M354.9,29s-23.61-9.5-25.73-9.72,4.25,2.43,2.67,4.7S354.9,29,354.9,29Z"/><path class="cls-3" d="M358.5,31.76s-22.2-12.53-24.27-13,3.91,3,2,5S358.5,31.76,358.5,31.76Z"/><path class="cls-3" d="M342.86,26.05s29.84-5.95,32.37-5.74-5.52,1.92-4.15,5S342.86,26.05,342.86,26.05Z"/><path class="cls-3" d="M349.42,24.87s30.36-2.63,32.91-1.81-5.64,1.66-4.34,6.27S349.42,24.87,349.42,24.87Z"/><path class="cls-3" d="M332.71,26.43s29.32-8.2,31.86-8.18-5.37,2.34-3.78,5.24S332.71,26.43,332.71,26.43Z"/><path class="cls-3" d="M327.94,32.38s26.12-15.82,28.57-16.49S352,19.59,354.24,22,327.94,32.38,327.94,32.38Z"/><path class="cls-3" d="M419.34,66.37a72.92,72.92,0,0,1,28.39,16.8c1.83,1.77-5.47-2.16-6.41,1S419.34,66.37,419.34,66.37Z"/><path class="cls-3" d="M420.62,61.05s4.12-3.33,21.78,13c1.87,1.73-5.46-2.16-6.41,1S420.62,61.05,420.62,61.05Z"/><path class="cls-3" d="M380.89,26.89l.39-.34Z"/><polygon class="cls-3" points="380.57 26.77 381.56 27.12 379.86 29.14 378.14 28.45 380.08 27.02 380.57 26.77"/><path class="cls-3" d="M42.4,279.36h67.09c-5.52-36.78-18.24-81.25-37.29-81.5C55.31,197.63,12.87,245,12.87,254,12.87,254,26.11,262.79,42.4,279.36Z"/><path class="cls-3" d="M175.56,279.36c17.37-43.46,38.33-85.17,29.91-89.93-2.84-1.61-18.21-4.74-35.59-7a165.29,165.29,0,0,0-28.43-1.21,5,5,0,0,0-4.44,3.18c-4.76,12.95-.91,37,1.63,95Z"/><path class="cls-3" d="M304.34,279.36l1.54-1.37s1.23-12.69-18.2-32.64c-21.09-21.67-21.74-19.76-21.74-19.76s-16.18,25.28-34.29,53.77Z"/></g></svg>