<?xml version="1.0" encoding="UTF-8"?>
<svg width="139px" height="130px" viewBox="0 0 139 130" version="1.1" xmlns="http://www.w3.org/2000/svg" xmlns:xlink="http://www.w3.org/1999/xlink">
    <!-- Generator: sketchtool 63.1 (101010) - https://sketch.com -->
    <title>DF00B50E-7EEF-402C-8389-E565AEFDBD36</title>
    <desc>Created with sketchtool.</desc>
    <defs>
        <linearGradient x1="0.238933863%" y1="62.6338742%" x2="77.6900801%" y2="44.463684%" id="linearGradient-1">
            <stop stop-color="#272424" offset="35.37%"></stop>
            <stop stop-color="#231617" offset="64.14%"></stop>
            <stop stop-color="#1D0104" offset="95.09%"></stop>
        </linearGradient>
        <linearGradient x1="7.02872153%" y1="68.6818717%" x2="97.2264268%" y2="28.4128706%" id="linearGradient-2">
            <stop stop-color="#1D0104" offset="25.5%"></stop>
            <stop stop-color="#272424" offset="70.59%"></stop>
        </linearGradient>
        <linearGradient x1="118.087532%" y1="50.0309363%" x2="118.510996%" y2="50.0309363%" id="linearGradient-3">
            <stop stop-color="#1D0104" offset="20.3%"></stop>
            <stop stop-color="#272424" offset="87.04%"></stop>
        </linearGradient>
    </defs>
    <g id="FAQs" stroke="none" stroke-width="1" fill="none" fill-rule="evenodd">
        <g id="FAQs-1440px" transform="translate(-123.000000, -586.000000)">
            <g id="Raccoon" transform="translate(25.000000, 366.000000)">
                <g id="Group-2">
                    <g id="Raccoon-Thinking">
                        <g transform="translate(98.000000, 220.000000)">
                            <polygon id="Path" fill="#D9D5C3" fill-rule="nonzero" points="25.1349884 57 23 81.4018385 24.0426687 118.12935 38.5407292 133 72.6012413 132.800394 87 110.594222 85.609775 76.3617859 78.1124903 65.1339462 66.8417378 57"></polygon>
                            <path d="M68.3734878,14.2363421 C65.6327311,13.3433877 55.9653346,12.8969106 54.9188638,12.847302 C48.2912157,12.500042 41.6137357,12.8969106 35.3847431,15.0796878 C29.8035657,11.3590448 27.2123048,9.97000468 21.979951,3.42167288 C21.3819677,2.67754427 18.9900346,3.27284716 19.0398665,4.41384437 C16.4486056,11.7559134 15.7509585,16.9152051 16.2492779,26.1920085 C16.2492779,26.4400513 16.2492779,26.6880942 16.1994459,26.7873114 C10.4189408,37.7508063 1.94751088,41.0745807 1,47.4740868 C0.901040121,48.2182154 11.4155796,54.6673301 11.963731,55.0145901 C30.1523893,66.9206479 38.0258359,71.3854196 43.5571814,72.3775911 C48.6898713,73.320154 53.2245779,73.0721111 57.6097886,72.4271997 C64.9350839,71.3854196 71.562732,65.5812164 81.5789521,60.1738818 C90.050382,55.5602844 98.6713078,50.0537327 98.9702994,48.3174326 C99.6679466,40.6281036 87.8577766,33.0876003 86.4126504,24.6045341 C87.9076086,15.7245993 85.4658435,12.6488677 84.3695408,3.7689329 C84.220045,2.62793569 82.1769354,2.97519571 81.5789521,3.42167288 C78.7385315,5.55484157 78.7883634,6.59662163 75.9977748,8.72979033 C73.9546652,10.2676561 71.9613876,11.7559134 69.918278,13.2937792 C69.5694544,13.541822 69.1209669,13.7898649 68.7223114,14.0875163 L68.3734878,14.2363421 Z" id="Path" fill="#3D3637" fill-rule="nonzero"></path>
                            <g id="Group" fill-rule="nonzero">
                                <g>
                                    <path d="M67.85,11.35 C65.1,10.45 55.4,10 54.35,9.95 C47.75,9.6 41,10 34.8,12.15 C29.15,8.45 26.6,7.05 21.3,0.45 C20.7,-0.3 18.3,0.3 18.35,1.45 C15.75,8.85 15.05,14.05 15.55,23.4 C15.55,23.65 15.55,23.9 15.5,24 C9.7,35.05 1.25,38.4 0.25,44.85 C0.15,45.6 1.55,49 2.1,49.3 C31.7,66.35 40.3,69.55 42.95,69.95 C48.1,70.75 52.65,70.65 57.05,70 C64.4,68.95 74.45,62.8 84.5,57.35 C93,52.7 102.2,48.75 102.5,47 C103.2,39.25 87.35,30.35 85.95,21.8 C87.45,12.85 85,9.75 83.9,0.8 C83.75,-0.35 81.7,-7.1088968e-15 81.1,0.45 C78.25,2.6 78.3,3.65 75.5,5.8 C73.45,7.35 71.45,8.85 69.4,10.4 C69.05,10.65 68.6,10.9 68.2,11.2 L67.85,11.35 Z" id="Path" fill="#D9D5C3"></path>
                                    <path d="M12.9,42.35 C12.9,42.35 22.75,25.5 32.6,21.8 C38.3,19.65 49.55,14.85 46.8,29.25 C45.5,36.05 37.85,44.15 35.3,46.8 C32.75,49.45 24.95,50.25 24.95,50.25 C24.95,50.25 18.25,46.55 15.8,44.95 C14.05,43.8 10.85,45.55 12.9,42.35 Z" id="Path" fill="#1D0104"></path>
                                    <path d="M89.75,42.2 C89.75,42.2 77.2,26.3 66.55,22.95 C60.4,21 54,20.5 56.45,31.1 C58.05,37.85 65.7,45.9 68.4,48.5 C71.1,51.1 77.6,50.35 77.6,50.35 C77.6,50.35 81.65,48.2 84.75,46.35 C84.65,44.2 91.9,45.35 89.75,42.2 Z" id="Path" fill="#1D0104"></path>
                                    <circle id="Oval" fill="#D9D5C3" cx="36.25" cy="33.35" r="4.55"></circle>
                                    <ellipse id="Oval" fill="#D9D5C3" transform="translate(66.534725, 33.944460) rotate(-84.344904) translate(-66.534725, -33.944460) " cx="66.5347253" cy="33.9444603" rx="4.5498485" ry="4.5498485"></ellipse>
                                    <g transform="translate(34.000000, 29.000000)" fill="#1D0104" id="Path">
                                        <path d="M33.7,5.65 C33.5,5.95 33.25,6.15 33,6.25 C32.7,6.3 32.15,6.35 31.55,5.65 C31.2,5.25 30.95,4.7 30.75,4.1 C30.5,3.15 30.55,2.3 30.9,1.7 C31.1,1.4 31.35,1.2 31.6,1.1 C31.7,1.1 31.75,1.05 31.9,1.05 C32.2,1.05 32.6,1.15 33.05,1.65 C33.4,2.05 33.65,2.6 33.85,3.2 C34.1,4.2 34.05,5.1 33.7,5.65 Z"></path>
                                        <path d="M2.5,5.4 C1.6,5.65 0.7,4.75 0.3,3.25 L0.3,3.25 C-0.1,1.75 0.25,0.5 1.15,0.3 C1.25,0.3 1.3,0.25 1.45,0.25 C1.75,0.25 2.15,0.35 2.6,0.85 C2.95,1.25 3.2,1.8 3.4,2.4 C3.75,3.95 3.4,5.2 2.5,5.4 Z"></path>
                                    </g>
                                    <path d="M84.45,20.7 C83.95,15.4 83.4,10.05 82.9,4.75 C82.75,3.3 80.4,4.15 79.85,4.7 C76.4,7.95 74.45,9.3 71,12.55 C70.6,12.9 70.6,13.75 71.1,14 C75,16.1 77.4,20.1 81.3,22.2 C82.25,22.6 83.75,22.6 84.3,21.6 C84.55,21.35 84.55,21.25 84.45,20.7 Z" id="Path" fill="#1D0104"></path>
                                    <path d="M32,14.85 C32,14.65 31.9,14.45 31.65,14.3 C28.7,11.85 24.25,8.4 21.3,5.95 C20.45,5.25 18.2,6.1 18.35,7.3 C18.85,11.6 17.85,17.15 19.8,22.75 C20.15,23.8 22.05,23.3 22.55,22.95 C25,21.05 29,17.65 31.45,15.8 C31.95,15.45 32.1,15.1 32,14.85 Z" id="Path" fill="#1D0104"></path>
                                    <path d="M48.05,45.15 C45.6,45.7 45.45,47 45.3,48.8 C45.2,49.95 45.1,51 46.7,52.15 C47.1,52.45 49.5,54.15 52.3,54.05 C55,53.95 56.55,52.25 57,51.25 C57.4,50.25 56.6,50.2 56.35,48.1 C56.15,46.5 56.6,46.15 55.7,45.7 C54.15,44.9 50.4,44.6 48.05,45.15 Z" id="Path" fill="#1D0104"></path>
                                    <path d="M29.55,29.0039706 C29.1,28.7734209 28.4,27.4285474 33.35,24.7772256 C33.75,24.5466759 34.85,24.0471515 36.4,24.0471515 C36.9,24.0471515 38.25,24.0471515 39.4,24.7772256 C40.25,25.3151749 41.1,26.2757988 40.75,26.7368983 C40.45,27.1211478 39.45,26.7368983 37.15,26.8137482 C36.15,26.8521731 34.8,26.8905981 33.4,27.3516975 C31.65,27.9280719 29.85,29.1576704 29.55,29.0039706 Z" id="Path" fill="#3D3637"></path>
                                    <path d="M72.1,30.55 C72.45,30.25 72.55,28.75 67.05,26.3 C66.6,26.1 65.4,25.65 64,25.8 C63.55,25.85 62.35,25.95 61.55,26.85 C61,27.5 60.6,28.6 61.1,29.05 C61.55,29.45 62.3,28.95 64.4,28.8 C65.3,28.75 66.55,28.7 68,29.05 C69.75,29.55 71.9,30.75 72.1,30.55 Z" id="Path" fill="#3D3637"></path>
                                </g>
                                <path d="M49.65,10.4 C49.65,10.4 36.2,9.55 35.2,9.9 C34.2,10.25 37.65,10.15 37.35,11.5 C37.1,12.85 49.65,10.4 49.65,10.4 Z" id="Path" fill="#D9D5C3"></path>
                                <path d="M51.15,9.95 C51.15,9.95 35.2,9.4 33.9,10 C32.6,10.6 37.05,10.4 36.7,12.75 C36.35,15.15 51.15,9.95 51.15,9.95 Z" id="Path" fill="#D9D5C3"></path>
                                <path d="M51.55,9.7 C51.55,9.7 38.9,8.3 37.9,8.5 C36.85,8.7 40.25,9.1 39.8,10.4 C39.35,11.7 51.55,9.7 51.55,9.7 Z" id="Path" fill="#D9D5C3"></path>
                                <path d="M54.7,12.8 C54.7,12.8 42.9,8.05 41.85,7.95 C40.8,7.85 44,9.15 43.2,10.3 C42.4,11.45 54.7,12.8 54.7,12.8 Z" id="Path" fill="#D9D5C3"></path>
                                <path d="M56.5,14.2 C56.5,14.2 45.4,7.95 44.35,7.7 C43.3,7.45 46.3,9.2 45.35,10.2 C44.45,11.2 56.5,14.2 56.5,14.2 Z" id="Path" fill="#D9D5C3"></path>
                                <path d="M48.7,11.35 C48.7,11.35 63.6,8.35 64.9,8.5 C66.15,8.6 62.15,9.45 62.8,10.95 C63.5,12.45 48.7,11.35 48.7,11.35 Z" id="Path" fill="#D9D5C3"></path>
                                <path d="M51.95,10.75 C51.95,10.75 67.15,9.45 68.4,9.85 C69.65,10.25 65.6,10.7 66.25,13 C66.9,15.3 51.95,10.75 51.95,10.75 Z" id="Path" fill="#D9D5C3"></path>
                                <path d="M43.6,11.5 C43.6,11.5 58.25,7.4 59.55,7.4 C60.85,7.4 56.85,8.55 57.65,10 C58.45,11.5 43.6,11.5 43.6,11.5 Z" id="Path" fill="#D9D5C3"></path>
                                <path d="M41.25,14.5 C41.25,14.5 54.3,6.6 55.55,6.25 C56.8,5.9 53.25,8.1 54.4,9.3 C55.55,10.5 41.25,14.5 41.25,14.5 Z" id="Path" fill="#D9D5C3"></path>
                                <path d="M67.7,11.75 L67.9,11.6 L67.7,11.75 Z" id="Path" fill="#D9D5C3"></path>
                                <polygon id="Path" fill="#D9D5C3" points="67.55 11.7 68.05 11.85 67.2 12.9 66.35 12.55 67.3 11.8"></polygon>
                                <path d="M87.5,33.2 C87.5,33.2 95.2,35.3 101.7,41.6 C102.6,42.5 98.95,40.5 98.5,42.1 C98.05,43.7 87.5,33.2 87.5,33.2 Z" id="Path" fill="#D9D5C3"></path>
                                <path d="M88.3,29.3 C88.3,29.3 90.45,30.4 99.05,37.1 C100.05,37.9 97.15,36.6 95.85,37.6 C92.05,40.45 88.3,29.3 88.3,29.3 Z" id="Path" fill="#D9D5C3"></path>
                                <path d="M15.8,26.05 C15.8,26.05 7.45,33.15 7,34 C6.55,34.85 8.85,32.95 9.65,34.45 C10.45,35.95 15.8,26.05 15.8,26.05 Z" id="Path" fill="#D9D5C3"></path>
                                <path d="M12.9,30.3 C12.9,30.3 4.55,37.4 4.1,38.25 C3.65,39.1 5.95,37.2 6.75,38.7 C7.55,40.15 12.9,30.3 12.9,30.3 Z" id="Path" fill="#D9D5C3"></path>
                                <path d="M11.75,35.6 C11.75,35.6 2.45,41.4 1.85,42.15 C1.3,42.95 3.85,41.4 4.4,42.95 C5,44.55 11.75,35.6 11.75,35.6 Z" id="Path" fill="#D9D5C3"></path>
                            </g>
                            <g id="Group" transform="translate(79.000000, 68.000000)" fill-rule="nonzero">
                                <path d="M0.201398601,64.795092 C6.9986014,62.8834356 10.5230769,71.6368098 23.5132867,77.3214724 C27.8433566,79.1828221 39.9776224,84.4650307 51.558042,79.2834356 C62.9874126,74.202454 71.4965035,60.0662577 71.0433566,45.4773006 C70.7916084,36.4220859 67.1160839,29.7312883 62.0811189,20.5251534 C58.1538462,13.3815951 54.427972,6.74110429 47.3286713,2.91779141 C45.4657343,1.91165644 38.8699301,-1.50920245 32.0727273,1.15705521 C30.7132867,1.71042945 24.3692308,4.17546012 24.2181818,9.50797546 C24.1174825,13.3815951 27.3902098,16.6515337 29.6559441,18.1104294 C33.8853147,20.7263804 36.4531469,16.198773 40.7328671,17.7582822 C45.8181818,19.5693252 50.2993007,28.2220859 49.0405594,35.7177914 C47.8321678,43.1128834 41.5384615,46.2319018 40.0783217,46.9865031 C34.7412587,49.6527607 31.0153846,47.791411 22.0531469,47.3889571 C18.0755245,47.2380368 9.66713287,46.8355828 3.22237762,49.0993865 C3.97762238,54.3815951 7.4013986,59.2613497 0.201398601,64.795092 Z" id="Path" fill="url(#linearGradient-1)"></path>
                                <path d="M69.4321678,36.2711656 C69.4321678,36.2711656 59.9160839,38.9877301 49.0909091,35.6171779 C47.9832168,36.6736196 47.7314685,39.3398773 46.8755245,41.1006135 C46.1202797,42.7104294 66.6629371,59.3116564 70.5902098,54.1803681 C72.7048951,51.4638037 70.7916084,37.5791411 69.4321678,36.2711656 Z" id="Path" fill="#D9D5C3"></path>
                                <path d="M59.9664336,16.6515337 C59.9664336,16.6515337 64.6993007,20.6257669 64.4475524,24.801227 C63.793007,26.6122699 48.5370629,27.6687117 48.5370629,27.6687117 C48.5370629,27.6687117 47.7818182,25.7570552 46.8251748,23.4932515 C46.0699301,21.8331288 59.0097902,15.7460123 59.9664336,16.6515337 Z" id="Path" fill="#D9D5C3"></path>
                                <path d="M55.9384615,76.9190184 C53.5216783,77.8245399 47.1776224,58.2552147 40.5314685,48.0932515 C39.4237762,46.4331288 40.5818182,46.3325153 41.186014,45.8797546 C41.7902098,45.4269939 41.9916084,44.8736196 43.0993007,45.6282209 C57.3482517,59.4625767 63.1888112,63.2355828 64.8503497,66.606135 C65.0517483,67.008589 65.0013986,67.4613497 64.8,67.8134969 C64.2461538,68.6687117 62.9370629,70.4294479 61.2251748,72.2404908 C58.8083916,74.7055215 56.4923077,76.7177914 55.9384615,76.9190184 Z" id="Path" fill="#D9D5C3"></path>
                                <path d="M33.7342657,48.2441718 C33.7342657,48.2441718 28.0447552,46.8355828 26.8363636,48.2944785 C25.627972,49.7533742 30.813986,80.0380368 30.813986,80.0380368 C30.813986,80.0380368 32.5258741,82.1006135 37.8125874,81.9496933 C43.5524476,81.7484663 43.351049,81.3460123 43.351049,81.3460123 C43.351049,81.3460123 33.4825175,46.5337423 33.7342657,48.2441718 Z" id="Path" fill="#D9D5C3"></path>
                                <path d="M20.9958042,47.3889571 C20.9958042,47.2883436 20.8951049,47.2380368 20.8447552,47.1877301 C20.1902098,47.0871166 17.3202797,46.6846626 14.248951,47.0368098 C12.4867133,47.2380368 13.9468531,71.6368098 13.9468531,71.6368098 C13.9468531,71.6368098 15.3062937,72.391411 19.8881119,75.0576687 C23.765035,77.3214724 26.634965,78.5288344 26.634965,78.5288344 C26.634965,78.5288344 21.5496503,49.9042945 20.9958042,47.3889571 Z" id="Path" fill="#D9D5C3"></path>
                            </g>
                            <path d="M37.3158761,54.3422983 C37.3158761,54.3422983 39.978795,59.0660147 44.5649331,63.6870416 C44.7621863,63.8924205 44.5156197,63.8924205 44.1704266,63.7897311 C43.5293535,63.6356968 42.8882804,63.3276284 42.345834,62.9168704 L35.1460903,57.6283619 C35.1460903,57.6283619 33.8639442,56.8581907 34.0118841,57.6797066 C34.159824,58.5012225 36.7734296,61.1711491 38.4993956,62.198044 C40.2253615,63.2249389 44.5649331,65.0733496 44.9594396,65.3300733 C45.3046328,65.5867971 45.4525727,65.997555 44.4663064,65.9462103 C39.7322284,65.6381418 36.7241163,63.99511 36.1323566,63.6870416 C35.7871634,63.4816626 35.2447169,62.5574572 35.2447169,63.4303178 C35.2447169,64.3031785 37.8090092,65.792176 39.2390953,65.997555 C40.7184947,66.202934 45.6498259,67.5892421 46.1922724,67.5892421 C46.7347188,67.5892421 47.5237318,65.8435208 50.0880241,66.4596577 C52.6523164,67.0757946 53.6385826,68 53.6385826,68 L53.6385826,65.4327628 C53.6385826,65.4327628 59.4082402,63.2762836 60,61.5305623 C58.4712873,61.1711491 58.3726607,62.0953545 56.4001282,62.3520782 C54.3782823,62.608802 51.7646767,63.2762836 49.3976377,62.7114914 C47.0305987,62.1466993 44.8608129,61.7872861 43.4307269,60.400978 C42.0006408,59.0146699 38.4993956,54.5476773 38.3021423,54.3422983 C37.463816,53.5721271 37.3158761,54.3422983 37.3158761,54.3422983 Z" id="Path" fill="#1D0104" fill-rule="nonzero"></path>
                            <path d="M51,58.8452238 C51,58.8452238 53.5922717,60.4178268 56.8549585,57.5585487 C58.6427321,55.9859458 58.240483,58.1304043 56.3186264,59.1311516 C54.3967698,60.1318989 53.2794113,60.060417 52.2067472,59.9174531 C51.268166,59.7744892 51,58.8452238 51,58.8452238 Z" id="Path" fill="#1D0104" fill-rule="nonzero"></path>
                            <path d="M24.1051284,62 C24.1051284,62 13.2369589,80.7661959 5.26032079,86.106967 C4.01397109,86.9399313 3.61513918,88.5568621 4.41280299,89.7818096 C9.14893189,97.6214736 18.6710437,111.193892 38.562785,110.9979 C46.2901532,104.089197 50.6773042,100.365356 50.6773042,100.365356 L60,92.4766941 L56.9090527,76.6503722 L49.2315385,75.9154037 C49.2315385,75.9154037 44.8443875,77.3853408 38.762201,80.6192022 C32.6800144,83.8530636 26.2987039,82.0891392 26.2987039,82.0891392 L26.2987039,63.9109181 L24.1051284,62 Z" id="Path" fill="url(#linearGradient-2)" fill-rule="nonzero"></path>
                            <path d="M22.8028164,104.428785 C22.8028164,104.428785 10.6493402,122.948274 7.8714028,124.365065 C5.09346539,125.781857 9.80603778,125.22526 10.252492,126.94565 C10.6493402,128.666039 10.5501282,129.526234 11.6414607,130.082831 C12.7327933,130.639427 13.7249138,130.082831 15.5603367,132.359817 C17.3957596,134.636803 21.8603019,143.036353 26.2752381,145.566337 C30.7397804,148.146922 34.5098383,151.840699 38.9743806,150.828706 C43.4389228,149.816712 42.8932565,150.12031 44.5302554,147.995123 C46.2168602,145.869935 50.2845543,140.455768 54.4018544,139.595573 C58.5191545,138.735378 63.0829088,138.330581 66.3073004,140.860566 C69.531692,143.39055 69.9285402,147.134928 72.3096294,148.956517 C74.6907186,150.828706 77.0718079,151.537101 80.9410778,150.06971 C84.8599538,148.652919 94.6323407,139.241375 98.6504288,131.702021 C102.668517,124.162666 105,120.823086 105,120.823086 L95.178007,102 L80.2465935,107.970764 C80.2465935,107.970764 78.5599886,115.914916 75.0875668,120.468889 C71.6151451,125.022861 64.6206955,132.865814 48.1514952,129.981631 C31.6822949,127.148048 31.4342647,122.442277 31.4342647,122.442277 L25.7295718,104.529985 L22.8028164,104.428785 Z" id="Path" fill="#1D0104" fill-rule="nonzero"></path>
                            <path d="M50.1773608,120.532012 C50.1773608,120.532012 49.5812315,118.755241 50.5747803,119.02859 C51.5683291,119.30194 52.4294047,120.258663 51.7670388,120.987595 C51.104673,121.716526 50.77349,122.536575 50.4423071,121.534294 C50.1773608,120.532012 50.1773608,120.532012 50.1773608,120.532012 Z" id="Path" stroke="#1D0104"></path>
                            <path d="M46,65.4978319 C46,65.4978319 47.4060606,70.3903979 47.55671,77.7040274 C47.7073593,85.0680958 44.3428571,105.546259 52.9298701,110.237069 C61.5168831,114.92788 67.6935065,112.456378 77.8372294,111.397162 C87.9809524,110.337947 104,100.300621 104,98.6361397 C104,96.8707808 101.991342,95.5593714 99.8822511,93.7940125 C99.1792208,93.1887466 100.535065,93.6931348 99.8822511,92.8861136 C99.2796537,92.1799701 97.3714286,90.6668054 98.7774892,91.0198771 C99.982684,91.3225101 95.6138528,87.89267 95.4632035,87.03521 C94.2077922,80.5286016 86.0727273,62.5723801 80.7497835,60 C76.0796537,61.8157977 73.3177489,64.6403719 71.3090909,65.6995872 C69.8528139,66.4561696 72.1125541,70.8947861 75.6779221,73.8706768 C79.24329,76.8465674 81.9549784,80.0746522 78.5402597,81.4869393 C75.1757576,82.8992264 72.4640693,84.3115135 66.187013,80.2259687 C59.9099567,76.1404239 55.8424242,71.4496132 54.034632,68.625039 C52.2268398,65.8004648 52.2268398,65.8004648 52.2268398,65.8004648 L46,65.4978319 Z" id="Path" fill="url(#linearGradient-3)" fill-rule="nonzero"></path>
                        </g>
                    </g>
                </g>
            </g>
        </g>
    </g>
</svg>